<svg width="51" height="51" viewBox="0 0 51 51" fill="none" xmlns="http://www.w3.org/2000/svg">
<g clip-path="url(#clip0_120_94)">
<path d="M23.4178 46.7467H1.0655C0.736787 46.7467 0.427997 46.5973 0.228779 46.3383C0.02956 46.0793 -0.0501275 45.7406 0.02956 45.4219L1.17507 40.81C1.7528 38.5189 3.42624 36.7061 5.65749 35.9789L14.194 33.1301C15.4591 32.6021 16.2559 30.6896 16.3356 27.8807C15.3594 26.9941 13.2577 24.8227 13.2577 22.6014C13.2577 21.8244 12.9987 21.665 12.9987 21.6551C12.68 21.5654 12.5106 21.3662 12.3811 21.0574C12.2716 20.7885 11.3551 18.4178 11.3551 16.8141C11.3551 16.7244 11.3651 16.6447 11.385 16.565C11.5145 16.0172 11.8432 15.4594 12.3313 15.1307C12.3413 14.8717 12.3612 14.5928 12.3712 14.274C12.421 13.2281 12.5007 11.8236 12.5007 10.0805C12.5007 6.10605 17.3716 0 23.378 0C28.8067 0 31.4464 2.89863 31.8747 4.76133C33.1995 5.49844 34.3649 6.71367 34.3649 10.0904V15.1406C34.8928 15.4992 35.2215 16.0869 35.351 16.4854C35.3909 16.5949 35.4008 16.7045 35.4008 16.824C35.4008 17.4117 34.9227 17.9297 34.335 17.9297C33.7971 17.9297 33.3589 17.5711 33.2891 17.073C33.2493 17.0033 33.1995 16.9236 33.1596 16.9037C32.5719 16.9037 32.2333 16.4654 32.2333 15.8777V10.1004C32.2333 7.33125 31.3467 6.88301 30.8089 6.61406C30.4901 6.45469 29.8128 6.10605 29.8128 5.29922C29.7729 4.66172 27.9899 2.13164 23.378 2.13164C18.3178 2.13164 14.6223 7.37109 14.6223 10.1004C14.6223 11.8934 14.5526 13.3277 14.4928 14.4035C14.463 15.0211 14.4331 15.5092 14.4331 15.8777C14.4331 16.4256 14.0147 16.8838 13.4768 16.9336C13.5067 17.8002 13.945 19.1748 14.2239 19.9318C14.7917 20.3402 15.3893 21.157 15.3893 22.6113C15.3893 23.8066 16.7839 25.5199 18.0887 26.5957C18.3278 26.7949 18.4673 27.0938 18.4673 27.4125C18.4673 31.4467 17.2122 34.1859 14.9411 35.1322L6.32487 38.0109C4.79089 38.5189 3.63542 39.7641 3.23698 41.3479L2.42018 44.635H23.4178C24.0055 44.635 24.4837 45.1131 24.4837 45.7008C24.4837 46.2785 24.0055 46.7467 23.4178 46.7467Z" fill="#07932A"/>
<path d="M38.25 51.0002C38.1105 51.0002 37.9711 50.9704 37.8416 50.9106C37.3336 50.7014 25.5 45.5915 25.5 35.1424V26.2573C25.5 25.7991 25.7889 25.4006 26.2271 25.2512L37.9113 21.3067C38.1305 21.237 38.3695 21.237 38.5887 21.3067L50.2729 25.2512C50.7012 25.4006 51 25.7991 51 26.2573V35.1424C51 45.5915 39.1664 50.7114 38.6584 50.9206C38.5289 50.9704 38.3895 51.0002 38.25 51.0002ZM27.6217 27.0243V35.1424C27.6217 43.1809 36.2379 47.8028 38.25 48.769C40.2521 47.8028 48.8783 43.161 48.8783 35.1424V27.0243L38.25 23.4383L27.6217 27.0243Z" fill="#07932A"/>
<path d="M37.1843 40.372C37.1644 40.372 37.1445 40.372 37.1246 40.372C36.8158 40.352 36.5468 40.2126 36.3576 39.9735L32.1142 34.6644C31.7456 34.2062 31.8253 33.5388 32.2835 33.1702C32.7417 32.8017 33.4091 32.8813 33.7777 33.3396L37.2839 37.7224L43.8781 31.1282C44.2964 30.7099 44.9638 30.7099 45.3822 31.1282C45.8005 31.5466 45.8005 32.214 45.3822 32.6323L37.9414 40.0731C37.7421 40.2624 37.4732 40.372 37.1843 40.372Z" fill="#F8CB0E"/>
</g>
<defs>
<clipPath id="clip0_120_94">
<rect width="51" height="51" fill="white"/>
</clipPath>
</defs>
</svg>
