<svg width="48" height="48" viewBox="0 0 48 48" fill="none" xmlns="http://www.w3.org/2000/svg">
<g clip-path="url(#clip0_120_48)">
<path d="M24 15.1971C24.2156 15.1971 24.4125 15.1127 24.5625 14.9627C24.7125 14.8127 24.7969 14.6064 24.7969 14.4002V7.99707C24.7969 7.55645 24.4406 7.2002 24 7.2002C23.5594 7.2002 23.2031 7.55645 23.2031 7.99707V14.4002C23.2031 14.6158 23.2875 14.8127 23.4375 14.9627C23.5875 15.1127 23.7844 15.1971 24 15.1971Z" fill="#07932A"/>
<path d="M46.3969 8.80313H44.7937V5.59688C44.7937 4.71563 44.0813 3.99375 43.1906 3.99375H31.7812C29.9813 1.49062 27.0844 0 24 0C20.9156 0 18.0187 1.49063 16.2188 4.00313H4.8C3.91875 4.00313 3.19687 4.71562 3.19687 5.60625V8.80313H1.60313C0.7125 8.80313 0 9.51562 0 10.3969V43.2C0 44.0812 0.7125 44.8031 1.60313 44.8031H18.9656C19.875 46.7531 21.8438 48 24 48C26.1562 48 28.125 46.7531 29.0437 44.8031H46.4062C47.2875 44.8031 48.0094 44.0906 48.0094 43.2V10.3969C48 9.51562 47.2875 8.80313 46.3969 8.80313ZM32.7188 5.59688H43.2V31.9969H28.8C27.2906 31.9969 25.8469 32.6062 24.7969 33.6844V19.1531C27.9188 18.9 30.7125 17.1375 32.2875 14.4375C33.8719 11.7469 34.0312 8.4375 32.7188 5.59688ZM28.8 37.6031H43.2V40.0031H24.7969V37.6031C24.7969 35.3906 26.5875 33.6094 28.8 33.6H43.2V36H28.8C28.3594 36 28.0031 36.3563 28.0031 36.7969C28.0031 37.2375 28.3594 37.6031 28.8 37.6031ZM24 1.60313C28.4156 1.60313 31.9969 5.18438 31.9969 9.6C31.9969 14.0156 28.4156 17.5969 24 17.5969C19.5844 17.5969 16.0031 14.0156 16.0031 9.6C16.0031 5.18438 19.5844 1.60313 24 1.60313ZM4.8 5.59688H15.2812C13.9688 8.4375 14.1281 11.7375 15.7031 14.4375C17.2781 17.1375 20.0812 18.9 23.1937 19.1531V33.6844C22.1437 32.6062 20.7 31.9969 19.1906 31.9969H4.8V5.59688ZM4.8 37.6031H19.2C19.6406 37.6031 19.9969 37.2469 19.9969 36.8063C19.9969 36.3656 19.6406 36.0094 19.2 36.0094H4.8V33.6094H19.2C21.4125 33.6094 23.1938 35.4 23.2031 37.6125V40.0125H4.8V37.6031ZM46.3969 43.2H28.5188C28.5094 43.2 28.5 43.2 28.4906 43.2094C28.4344 43.2188 28.3781 43.2281 28.3219 43.2469C28.2281 43.2562 28.1344 43.2938 28.0687 43.3594C27.975 43.4062 27.9094 43.4719 27.8625 43.5656C27.825 43.6125 27.7969 43.6688 27.7688 43.725C27.7688 43.7344 27.7594 43.7344 27.7594 43.7438C27.1969 45.3375 25.6875 46.4062 23.9906 46.4062C22.2937 46.4062 20.7937 45.3375 20.2219 43.7438C20.2219 43.7344 20.2125 43.7344 20.2125 43.725C20.1844 43.6688 20.1562 43.6219 20.1188 43.575C20.0813 43.4906 20.0063 43.4156 19.9219 43.3688C19.8844 43.3406 19.8375 43.3125 19.8 43.2844C19.7625 43.2656 19.7156 43.2562 19.6688 43.2469C19.6125 43.2281 19.5562 43.2188 19.4906 43.2094C19.4812 43.2094 19.4719 43.2 19.4625 43.2H1.60313V10.3969H3.20625V39.9938C3.20625 40.875 3.91875 41.5969 4.80937 41.5969H43.2094C44.0906 41.5969 44.8125 40.8844 44.8125 39.9938V10.3969H46.4156L46.3969 43.2Z" fill="#07932A"/>
<path d="M31.9971 19.2002C31.9971 19.4158 32.0814 19.6127 32.2314 19.7627C32.3814 19.9127 32.5877 19.9971 32.7939 19.9971H40.7908C41.2314 19.9971 41.5877 19.6408 41.5877 19.2002C41.5877 18.7596 41.2314 18.4033 40.7908 18.4033H32.7939C32.5783 18.4033 32.3814 18.4877 32.2314 18.6377C32.0814 18.7877 31.9971 18.9846 31.9971 19.2002Z" fill="#F8CB0E"/>
<path d="M40.7998 22.397H29.5967C29.1561 22.397 28.7998 22.7532 28.7998 23.1938C28.7998 23.6345 29.1561 23.9907 29.5967 23.9907H40.7998C41.2404 23.9907 41.5967 23.6345 41.5967 23.1938C41.5967 22.7532 41.2404 22.397 40.7998 22.397Z" fill="#F8CB0E"/>
<path d="M40.7998 26.3999H29.5967C29.1561 26.3999 28.7998 26.7562 28.7998 27.1968C28.7998 27.6374 29.1561 27.9937 29.5967 27.9937H40.7998C41.2404 27.9937 41.5967 27.6374 41.5967 27.1968C41.5967 26.7562 41.2404 26.3999 40.7998 26.3999Z" fill="#F8CB0E"/>
<path d="M7.2002 19.9971H15.1971C15.6377 19.9971 15.9939 19.6408 15.9939 19.2002C15.9939 18.7596 15.6377 18.4033 15.1971 18.4033H7.2002C6.75957 18.4033 6.40332 18.7596 6.40332 19.2002C6.40332 19.6408 6.75957 19.9971 7.2002 19.9971Z" fill="#F8CB0E"/>
<path d="M7.2002 24H18.4033C18.8439 24 19.2002 23.6437 19.2002 23.2031C19.2002 22.7625 18.8439 22.4062 18.4033 22.4062H7.2002C6.75957 22.4062 6.40332 22.7625 6.40332 23.2031C6.40332 23.6437 6.75957 24 7.2002 24Z" fill="#F8CB0E"/>
<path d="M18.4033 26.3999H7.2002C6.75957 26.3999 6.40332 26.7562 6.40332 27.1968C6.40332 27.6374 6.75957 27.9937 7.2002 27.9937H18.4033C18.8439 27.9937 19.2002 27.6374 19.2002 27.1968C19.2002 26.7562 18.8439 26.3999 18.4033 26.3999Z" fill="#F8CB0E"/>
<path d="M24 5.59668C24.2156 5.59668 24.4125 5.5123 24.5625 5.3623C24.7125 5.2123 24.7969 5.00605 24.7969 4.7998V4.00293C24.7969 3.5623 24.4406 3.20605 24 3.20605C23.5594 3.20605 23.2031 3.5623 23.2031 4.00293V4.7998C23.2031 5.01543 23.2875 5.2123 23.4375 5.3623C23.5875 5.5123 23.7844 5.59668 24 5.59668Z" fill="#07932A"/>
</g>
<defs>
<clipPath id="clip0_120_48">
<rect width="48" height="48" fill="white"/>
</clipPath>
</defs>
</svg>
