<svg width="44" height="45" viewBox="0 0 44 45" fill="none" xmlns="http://www.w3.org/2000/svg">
<g clip-path="url(#clip0_120_37)">
<path d="M37.9562 20.5786V9.22456C37.9562 6.52398 35.7372 4.2977 33.0219 4.2977H32.4088V3.53302C32.4088 1.6068 30.8418 0.0483975 28.9051 0.0483975C26.9684 0.0483975 25.4015 1.6068 25.4015 3.53302V4.2977H12.5547V3.53302C12.5547 1.57776 10.9684 0 9.00243 0C7.0365 0 5.45012 1.57776 5.45012 3.53302V4.2977H4.91484C2.20925 4.2977 0 6.53366 0 9.22456V35.2818C0 37.9824 2.20925 40.2086 4.91484 40.2086H20.3504C22.8905 43.2383 26.6569 44.9903 30.6277 44.9903C37.9951 44.9903 44 39.0181 44 31.6907C44 27.0542 41.5572 22.9501 37.9562 20.5786ZM27.3479 3.53302C27.3285 2.6909 28.0097 1.99398 28.8564 1.9843C28.8662 1.9843 28.8856 1.9843 28.8954 1.9843C29.7518 1.97462 30.4526 2.66186 30.4623 3.51366C30.4623 3.52334 30.4623 3.53302 30.4623 3.5427V7.30802H27.3479V3.53302ZM7.39659 3.53302C7.40633 2.66186 8.11679 1.97462 8.9927 1.97462C9.86861 1.97462 10.6083 2.66186 10.6083 3.53302V7.29834H7.39659V3.53302ZM1.94647 9.22456C1.94647 7.59841 3.27981 6.2336 4.91484 6.2336H5.45012V8.30501C5.45012 8.83738 5.89781 9.23424 6.43309 9.23424H11.5523C12.0876 9.23424 12.545 8.83738 12.545 8.30501V6.2336H25.3917V8.30501C25.382 8.79867 25.7713 9.21488 26.2676 9.23424C26.2871 9.23424 26.3066 9.23424 26.326 9.23424H31.4453C31.9513 9.2536 32.3796 8.85674 32.399 8.35341C32.399 8.34373 32.399 8.32437 32.399 8.31469V6.2336H33.0122C34.6667 6.25296 35.9903 7.57905 36 9.22456V12.3317H1.94647V9.22456ZM4.91484 38.2727C3.27981 38.2727 1.94647 36.9079 1.94647 35.2818V14.2676H36.0097V19.5236C34.3163 18.7879 32.4866 18.4007 30.6375 18.4007C23.2701 18.4007 17.2749 24.3827 17.2749 31.71C17.2749 34.0138 17.8686 36.2788 19.0073 38.2824H4.91484V38.2727ZM30.6277 43.0447C24.3212 43.0447 19.2117 37.963 19.2117 31.6907C19.2117 25.4184 24.3212 20.3366 30.6277 20.3366C36.9343 20.3366 42.0438 25.4184 42.0438 31.6907C42.0341 37.963 36.9246 43.0351 30.6277 43.0447Z" fill="#07932A"/>
<path d="M35.2112 31.6905H30.9484V25.8635C30.9484 25.3311 30.5105 24.8955 29.9752 24.8955C29.4399 24.8955 29.002 25.3311 29.002 25.8635V32.6585C29.0117 33.2005 29.4496 33.6264 29.9947 33.6264H35.2112C35.7465 33.6264 36.1844 33.1908 36.1844 32.6585C36.1844 32.1261 35.7465 31.6905 35.2112 31.6905Z" fill="#F8CB0E"/>
</g>
<defs>
<clipPath id="clip0_120_37">
<rect width="44" height="45" fill="white"/>
</clipPath>
</defs>
</svg>
