<svg width="57" height="47" viewBox="0 0 57 47" fill="none" xmlns="http://www.w3.org/2000/svg">
<g clip-path="url(#clip0_120_64)">
<path d="M46.8654 39.625H40.3479V17.7871L44.4914 19.4161C44.7825 19.5262 45.1185 19.4931 45.376 19.317C45.6336 19.1409 45.7904 18.8547 45.7904 18.5465V3.1367C45.7904 2.82851 45.6336 2.53132 45.376 2.36621C45.1185 2.1901 44.7825 2.15708 44.4914 2.26715L40.3031 3.9182L40.2696 3.72007C40.0904 2.8175 39.6424 1.99197 38.9705 1.33155C38.0747 0.461995 36.8988 -0.0113076 35.6558 -0.000300532H19.6196C19.0933 -0.000300532 18.6678 0.417967 18.6678 0.935297C18.6678 1.45263 19.0933 1.87089 19.6196 1.87089H35.6894C36.4173 1.87089 37.1116 2.14607 37.6267 2.6634C38.1418 3.15872 38.433 3.83014 38.4554 4.53459V4.64466L33.4721 6.60391H28.0521C25.678 6.60391 23.7407 8.50813 23.7407 10.8416C23.7407 13.1751 25.678 15.0793 28.0521 15.0793H28.22V22.9493C28.22 23.4667 28.6456 23.8849 29.1719 23.8849H33.6513C34.1776 23.8849 34.6031 23.4667 34.6031 22.9493V15.5306L38.4442 17.0386V39.625H37.1564C36.6301 39.625 36.2045 40.0433 36.2045 40.5606C36.2045 41.0779 36.6301 41.4962 37.1564 41.4962H45.9136V42.3988C45.9136 43.9067 44.6705 45.1285 43.1363 45.1285H15.9242L16.0921 44.8753C16.5737 44.1379 16.8312 43.2793 16.8312 42.3988V41.4962H28.1976C28.724 41.4962 29.1495 41.0779 29.1495 40.5606C29.1495 40.0433 28.724 39.625 28.1976 39.625H15.8794C15.353 39.625 14.9275 40.0433 14.9275 40.5606V42.3988C14.9275 43.9067 13.6845 45.1285 12.1503 45.1285C10.6161 45.1285 9.37308 43.9067 9.37308 42.3988V32.6906H17.9175V36.1578C17.9175 36.543 18.1527 36.8732 18.4998 37.0163C18.6118 37.0604 18.735 37.0934 18.8582 37.0934C19.1157 37.0934 19.3509 36.9943 19.5301 36.8182L24.0094 32.4154C24.1886 32.2393 24.2894 32.0081 24.2894 31.755V20.7479C24.2894 19.0198 22.856 17.6109 21.0978 17.6109H9.37308V4.60064C9.37308 3.72007 9.11552 2.86153 8.63399 2.12406L8.46601 1.87089H10.6609C11.1872 1.87089 11.6128 1.45263 11.6128 0.935297C11.6128 0.417967 11.1872 -0.000300532 10.6609 -0.000300532H4.68094C3.43792 -0.000300532 2.26208 0.484009 1.37741 1.35356C0.481532 2.22312 0 3.37886 0 4.60064V6.43881C0 6.95614 0.42554 7.37441 0.951866 7.37441H7.46935V17.6109H3.19155C2.34047 17.6109 1.53418 17.9412 0.940668 18.5355C0.335953 19.1299 0 19.9114 0 20.7479V29.5536C0 31.2817 1.4334 32.6906 3.19155 32.6906H7.46935V42.3988C7.46935 44.9414 9.57466 46.9997 12.1503 46.9997H43.1363C45.7232 46.9997 47.8173 44.9304 47.8173 42.3988V40.5606C47.8173 40.0433 47.3918 39.625 46.8654 39.625ZM32.6994 22.0138H30.1238V15.0793H32.6994V22.0138ZM32.6994 13.2081H28.0521C27.4138 13.2081 26.809 12.966 26.3499 12.5147C25.8908 12.0634 25.6444 11.469 25.6444 10.8416C25.6444 9.54279 26.7194 8.47511 28.0521 8.47511H32.6994V13.2081ZM34.6031 13.5163V8.17792L43.8978 4.52359V17.1707L34.6031 13.5163ZM1.90373 5.50321V4.60064C1.90373 3.09267 3.14676 1.87089 4.68094 1.87089C6.21513 1.87089 7.45815 3.09267 7.45815 4.60064V5.50321H1.90373ZM3.19155 30.8194C2.47485 30.8194 1.90373 30.247 1.90373 29.5536V20.7479C1.90373 20.0545 2.47485 19.4821 3.19155 19.4821H21.109C21.8145 19.4821 22.3969 20.0545 22.3969 20.7479V31.3697L19.8212 33.9013V31.755C19.8212 31.2376 19.3957 30.8194 18.8694 30.8194H3.19155Z" fill="#07932A"/>
<path d="M56.9997 10.8421C56.9997 13.3187 56.3278 15.7732 55.0735 17.9086C54.9055 18.1948 54.592 18.3819 54.2448 18.3819C54.0769 18.3819 53.9089 18.3379 53.7745 18.2498C53.5505 18.1288 53.3938 17.9196 53.3266 17.6775C53.2594 17.4353 53.293 17.1821 53.4273 16.962C54.5248 15.1018 55.0959 12.9775 55.0959 10.8201C55.0959 8.67372 54.5136 6.54936 53.4273 4.68917C53.3042 4.46903 53.2706 4.22688 53.3266 3.97372C53.3938 3.73156 53.5505 3.53344 53.7745 3.40135C53.9201 3.31329 54.0881 3.28027 54.2448 3.28027C54.5696 3.28027 54.8943 3.44538 55.0735 3.74257C56.3278 5.92196 56.9997 8.36552 56.9997 10.8421Z" fill="#FAD84A"/>
<path d="M52.5204 10.8422C52.5204 12.5483 52.0613 14.2324 51.1878 15.7073C51.0198 15.9935 50.7063 16.1696 50.3591 16.1696C50.1911 16.1696 50.0232 16.1256 49.8888 16.0485C49.4297 15.7954 49.2729 15.223 49.5416 14.7717C50.2471 13.5829 50.6167 12.2181 50.6167 10.8312C50.6167 9.45531 50.2471 8.09044 49.5416 6.90168C49.2729 6.45039 49.4297 5.87802 49.8888 5.62486C50.1128 5.50378 50.3703 5.47076 50.6167 5.5258C50.8631 5.59184 51.0646 5.74594 51.199 5.96608C52.0613 7.45203 52.5204 9.1361 52.5204 10.8422Z" fill="#FAD84A"/>
<path d="M13.102 25.1514C13.102 25.6687 12.6764 26.087 12.1501 26.087C11.6238 26.087 11.1982 25.6687 11.1982 25.1514C11.1982 24.6341 11.6238 24.2158 12.1501 24.2158C12.6764 24.2158 13.102 24.6341 13.102 25.1514Z" fill="#07932A"/>
<path d="M8.62248 25.1514C8.62248 25.6687 8.19694 26.087 7.67062 26.087C7.14429 26.087 6.71875 25.6687 6.71875 25.1514C6.71875 24.6341 7.14429 24.2158 7.67062 24.2158C8.19694 24.2158 8.62248 24.6341 8.62248 25.1514Z" fill="#07932A"/>
<path d="M16.6296 26.087C17.1553 26.087 17.5815 25.6681 17.5815 25.1514C17.5815 24.6347 17.1553 24.2158 16.6296 24.2158C16.1039 24.2158 15.6777 24.6347 15.6777 25.1514C15.6777 25.6681 16.1039 26.087 16.6296 26.087Z" fill="#07932A"/>
<path d="M16.0922 0.935597C16.0922 1.45293 15.6667 1.87119 15.1403 1.87119C14.614 1.87119 14.1885 1.45293 14.1885 0.935597C14.1885 0.418267 14.614 0 15.1403 0C15.6555 0 16.0922 0.418267 16.0922 0.935597Z" fill="#07932A"/>
<path d="M33.6293 40.5611C33.6293 41.0784 33.2038 41.4967 32.6775 41.4967C32.1511 41.4967 31.7256 41.0784 31.7256 40.5611C31.7256 40.0438 32.1511 39.6255 32.6775 39.6255C33.2038 39.6255 33.6293 40.0438 33.6293 40.5611Z" fill="#07932A"/>
<path d="M21.1645 6.4395C21.1645 6.95683 20.739 7.3751 20.2127 7.3751H12.9001C12.3738 7.3751 11.9482 6.95683 11.9482 6.4395C11.9482 5.92217 12.3738 5.50391 12.9001 5.50391H20.2127C20.739 5.50391 21.1645 5.92217 21.1645 6.4395Z" fill="#07932A"/>
<path d="M18.9249 10.8423C18.9249 11.3597 18.4993 11.7779 17.973 11.7779H12.9001C12.3738 11.7779 11.9482 11.3597 11.9482 10.8423C11.9482 10.325 12.3738 9.90674 12.9001 9.90674H17.973C18.4993 9.90674 18.9249 10.325 18.9249 10.8423Z" fill="#07932A"/>
<path d="M35.8682 31.7554C35.8682 32.2728 35.4427 32.691 34.9164 32.691H29.8435C29.3171 32.691 28.8916 32.2728 28.8916 31.7554C28.8916 31.2381 29.3171 30.8198 29.8435 30.8198H34.9164C35.4427 30.8198 35.8682 31.2381 35.8682 31.7554Z" fill="#07932A"/>
<path d="M35.8686 36.1583C35.8686 36.6756 35.4431 37.0939 34.9168 37.0939H27.6042C27.0779 37.0939 26.6523 36.6756 26.6523 36.1583C26.6523 35.6409 27.0779 35.2227 27.6042 35.2227H34.9168C35.4431 35.2227 35.8686 35.6409 35.8686 36.1583Z" fill="#07932A"/>
</g>
<defs>
<clipPath id="clip0_120_64">
<rect width="57" height="47" fill="white"/>
</clipPath>
</defs>
</svg>
